<svg id="visual" viewBox="0 0 900 600" width="900" height="600" xmlns="http://www.w3.org/2000/svg" xmlns:xlink="http://www.w3.org/1999/xlink" version="1.1"><path d="M725 0L682 0L682 55L615 55L615 109L699 109L699 164L694 164L694 218L619 218L619 273L693 273L693 327L773 327L773 382L645 382L645 436L767 436L767 491L700 491L700 545L652 545L652 600L0 600L0 545L0 545L0 491L0 491L0 436L0 436L0 382L0 382L0 327L0 327L0 273L0 273L0 218L0 218L0 164L0 164L0 109L0 109L0 55L0 55L0 0L0 0Z" fill="#d5dfff"></path><path d="M546 0L506 0L506 55L519 55L519 109L492 109L492 164L506 164L506 218L602 218L602 273L520 273L520 327L511 327L511 382L512 382L512 436L585 436L585 491L531 491L531 545L579 545L579 600L0 600L0 545L0 545L0 491L0 491L0 436L0 436L0 382L0 382L0 327L0 327L0 273L0 273L0 218L0 218L0 164L0 164L0 109L0 109L0 55L0 55L0 0L0 0Z" fill="#b9c9ff"></path><path d="M463 0L447 0L447 55L472 55L472 109L355 109L355 164L381 164L381 218L423 218L423 273L380 273L380 327L400 327L400 382L458 382L458 436L448 436L448 491L368 491L368 545L386 545L386 600L0 600L0 545L0 545L0 491L0 491L0 436L0 436L0 382L0 382L0 327L0 327L0 273L0 273L0 218L0 218L0 164L0 164L0 109L0 109L0 55L0 55L0 0L0 0Z" fill="#9db3fe"></path><path d="M220 0L252 0L252 55L220 55L220 109L281 109L281 164L245 164L245 218L264 218L264 273L287 273L287 327L315 327L315 382L234 382L234 436L305 436L305 491L335 491L335 545L241 545L241 600L0 600L0 545L0 545L0 491L0 491L0 436L0 436L0 382L0 382L0 327L0 327L0 273L0 273L0 218L0 218L0 164L0 164L0 109L0 109L0 55L0 55L0 0L0 0Z" fill="#819dfc"></path><path d="M187 0L127 0L127 55L162 55L162 109L92 109L92 164L134 164L134 218L206 218L206 273L202 273L202 327L92 327L92 382L112 382L112 436L152 436L152 491L171 491L171 545L207 545L207 600L0 600L0 545L0 545L0 491L0 491L0 436L0 436L0 382L0 382L0 327L0 327L0 273L0 273L0 218L0 218L0 164L0 164L0 109L0 109L0 55L0 55L0 0L0 0Z" fill="#6287fa"></path></svg>