<svg id="visual" viewBox="0 0 900 600" width="900" height="600" xmlns="http://www.w3.org/2000/svg" xmlns:xlink="http://www.w3.org/1999/xlink" version="1.1"><path d="M582 0L569.5 20C557 40 532 80 502.7 120C473.3 160 439.7 200 443.2 240C446.7 280 487.3 320 494.3 360C501.3 400 474.7 440 476.2 480C477.7 520 507.3 560 522.2 580L537 600L0 600L0 580C0 560 0 520 0 480C0 440 0 400 0 360C0 320 0 280 0 240C0 200 0 160 0 120C0 80 0 40 0 20L0 0Z" fill="#ffffff"></path><path d="M309 0L326 20C343 40 377 80 384.7 120C392.3 160 373.7 200 369.7 240C365.7 280 376.3 320 390 360C403.7 400 420.3 440 416.2 480C412 520 387 560 374.5 580L362 600L0 600L0 580C0 560 0 520 0 480C0 440 0 400 0 360C0 320 0 280 0 240C0 200 0 160 0 120C0 80 0 40 0 20L0 0Z" fill="#d2d5ff"></path><path d="M277 0L283.2 20C289.3 40 301.7 80 309.3 120C317 160 320 200 300.7 240C281.3 280 239.7 320 221.2 360C202.7 400 207.3 440 232.5 480C257.7 520 303.3 560 326.2 580L349 600L0 600L0 580C0 560 0 520 0 480C0 440 0 400 0 360C0 320 0 280 0 240C0 200 0 160 0 120C0 80 0 40 0 20L0 0Z" fill="#a0adfd"></path><path d="M84 0L98.2 20C112.3 40 140.7 80 150.5 120C160.3 160 151.7 200 147.5 240C143.3 280 143.7 320 139.8 360C136 400 128 440 125.5 480C123 520 126 560 127.5 580L129 600L0 600L0 580C0 560 0 520 0 480C0 440 0 400 0 360C0 320 0 280 0 240C0 200 0 160 0 120C0 80 0 40 0 20L0 0Z" fill="#6287fa"></path></svg>