<svg id="visual" viewBox="0 0 900 300" width="900" height="300" xmlns="http://www.w3.org/2000/svg" xmlns:xlink="http://www.w3.org/1999/xlink" version="1.1"><path d="M0 46L69 46L69 67L138 67L138 55L208 55L208 67L277 67L277 70L346 70L346 37L415 37L415 67L485 67L485 61L554 61L554 25L623 25L623 55L692 55L692 55L762 55L762 73L831 73L831 52L900 52L900 91L900 0L900 0L831 0L831 0L762 0L762 0L692 0L692 0L623 0L623 0L554 0L554 0L485 0L485 0L415 0L415 0L346 0L346 0L277 0L277 0L208 0L208 0L138 0L138 0L69 0L69 0L0 0Z" fill="#0c0ce9"></path><path d="M0 100L69 100L69 133L138 133L138 178L208 178L208 130L277 130L277 145L346 145L346 166L415 166L415 127L485 127L485 106L554 106L554 79L623 79L623 184L692 184L692 97L762 97L762 172L831 172L831 124L900 124L900 157L900 89L900 50L831 50L831 71L762 71L762 53L692 53L692 53L623 53L623 23L554 23L554 59L485 59L485 65L415 65L415 35L346 35L346 68L277 68L277 65L208 65L208 53L138 53L138 65L69 65L69 44L0 44Z" fill="#0052f9"></path><path d="M0 214L69 214L69 205L138 205L138 226L208 226L208 241L277 241L277 193L346 193L346 244L415 244L415 211L485 211L485 217L554 217L554 199L623 199L623 238L692 238L692 205L762 205L762 208L831 208L831 223L900 223L900 256L900 155L900 122L831 122L831 170L762 170L762 95L692 95L692 182L623 182L623 77L554 77L554 104L485 104L485 125L415 125L415 164L346 164L346 143L277 143L277 128L208 128L208 176L138 176L138 131L69 131L69 98L0 98Z" fill="#007bff"></path><path d="M0 265L69 265L69 265L138 265L138 277L208 277L208 280L277 280L277 250L346 250L346 277L415 277L415 259L485 259L485 253L554 253L554 256L623 256L623 283L692 283L692 253L762 253L762 262L831 262L831 277L900 277L900 277L900 254L900 221L831 221L831 206L762 206L762 203L692 203L692 236L623 236L623 197L554 197L554 215L485 215L485 209L415 209L415 242L346 242L346 191L277 191L277 239L208 239L208 224L138 224L138 203L69 203L69 212L0 212Z" fill="#009dff"></path><path d="M0 301L69 301L69 301L138 301L138 301L208 301L208 301L277 301L277 301L346 301L346 301L415 301L415 301L485 301L485 301L554 301L554 301L623 301L623 301L692 301L692 301L762 301L762 301L831 301L831 301L900 301L900 301L900 275L900 275L831 275L831 260L762 260L762 251L692 251L692 281L623 281L623 254L554 254L554 251L485 251L485 257L415 257L415 275L346 275L346 248L277 248L277 278L208 278L208 275L138 275L138 263L69 263L69 263L0 263Z" fill="#00b9ff"></path></svg>