<svg id="visual" viewBox="0 0 900 600" width="900" height="600" xmlns="http://www.w3.org/2000/svg" xmlns:xlink="http://www.w3.org/1999/xlink" version="1.1"><path d="M606 0L593.8 11.2C581.7 22.3 557.3 44.7 545 66.8C532.7 89 532.3 111 552.5 133.2C572.7 155.3 613.3 177.7 612 200C610.7 222.3 567.3 244.7 544.2 266.8C521 289 518 311 536.8 333.2C555.7 355.3 596.3 377.7 603.5 400C610.7 422.3 584.3 444.7 578.5 466.8C572.7 489 587.3 511 579.7 533.2C572 555.3 542 577.7 527 588.8L512 600L0 600L0 588.8C0 577.7 0 555.3 0 533.2C0 511 0 489 0 466.8C0 444.7 0 422.3 0 400C0 377.7 0 355.3 0 333.2C0 311 0 289 0 266.8C0 244.7 0 222.3 0 200C0 177.7 0 155.3 0 133.2C0 111 0 89 0 66.8C0 44.7 0 22.3 0 11.2L0 0Z" fill="#ffffff"></path><path d="M469 0L454.2 11.2C439.3 22.3 409.7 44.7 412 66.8C414.3 89 448.7 111 451.3 133.2C454 155.3 425 177.7 410.3 200C395.7 222.3 395.3 244.7 402.7 266.8C410 289 425 311 432.2 333.2C439.3 355.3 438.7 377.7 443.5 400C448.3 422.3 458.7 444.7 455.7 466.8C452.7 489 436.3 511 438.2 533.2C440 555.3 460 577.7 470 588.8L480 600L0 600L0 588.8C0 577.7 0 555.3 0 533.2C0 511 0 489 0 466.8C0 444.7 0 422.3 0 400C0 377.7 0 355.3 0 333.2C0 311 0 289 0 266.8C0 244.7 0 222.3 0 200C0 177.7 0 155.3 0 133.2C0 111 0 89 0 66.8C0 44.7 0 22.3 0 11.2L0 0Z" fill="#dee0ff"></path><path d="M318 0L312.7 11.2C307.3 22.3 296.7 44.7 300.3 66.8C304 89 322 111 323.3 133.2C324.7 155.3 309.3 177.7 309.7 200C310 222.3 326 244.7 347 266.8C368 289 394 311 397.3 333.2C400.7 355.3 381.3 377.7 378.7 400C376 422.3 390 444.7 381 466.8C372 489 340 511 342.5 533.2C345 555.3 382 577.7 400.5 588.8L419 600L0 600L0 588.8C0 577.7 0 555.3 0 533.2C0 511 0 489 0 466.8C0 444.7 0 422.3 0 400C0 377.7 0 355.3 0 333.2C0 311 0 289 0 266.8C0 244.7 0 222.3 0 200C0 177.7 0 155.3 0 133.2C0 111 0 89 0 66.8C0 44.7 0 22.3 0 11.2L0 0Z" fill="#bac1fe"></path><path d="M174 0L188 11.2C202 22.3 230 44.7 245.5 66.8C261 89 264 111 271.3 133.2C278.7 155.3 290.3 177.7 285.3 200C280.3 222.3 258.7 244.7 254.7 266.8C250.7 289 264.3 311 269.2 333.2C274 355.3 270 377.7 264.7 400C259.3 422.3 252.7 444.7 244.7 466.8C236.7 489 227.3 511 225.8 533.2C224.3 555.3 230.7 577.7 233.8 588.8L237 600L0 600L0 588.8C0 577.7 0 555.3 0 533.2C0 511 0 489 0 466.8C0 444.7 0 422.3 0 400C0 377.7 0 355.3 0 333.2C0 311 0 289 0 266.8C0 244.7 0 222.3 0 200C0 177.7 0 155.3 0 133.2C0 111 0 89 0 66.8C0 44.7 0 22.3 0 11.2L0 0Z" fill="#93a3fc"></path><path d="M169 0L170.3 11.2C171.7 22.3 174.3 44.7 160.7 66.8C147 89 117 111 107 133.2C97 155.3 107 177.7 108.5 200C110 222.3 103 244.7 107.8 266.8C112.7 289 129.3 311 138.7 333.2C148 355.3 150 377.7 152.5 400C155 422.3 158 444.7 145.7 466.8C133.3 489 105.7 511 102.3 533.2C99 555.3 120 577.7 130.5 588.8L141 600L0 600L0 588.8C0 577.7 0 555.3 0 533.2C0 511 0 489 0 466.8C0 444.7 0 422.3 0 400C0 377.7 0 355.3 0 333.2C0 311 0 289 0 266.8C0 244.7 0 222.3 0 200C0 177.7 0 155.3 0 133.2C0 111 0 89 0 66.8C0 44.7 0 22.3 0 11.2L0 0Z" fill="#6287fa"></path></svg>