<svg id="visual" viewBox="0 0 900 900" width="900" height="900" xmlns="http://www.w3.org/2000/svg" xmlns:xlink="http://www.w3.org/1999/xlink" version="1.1"><rect width="900" height="900" fill="#CFDDF9"></rect><g><g transform="translate(523 710)"><path d="M0 -105.2L91.1 -52.6L91.1 52.6L0 105.2L-91.1 52.6L-91.1 -52.6Z" fill="#6287F7"></path></g><g transform="translate(213 840)"><path d="M0 -65L56.3 -32.5L56.3 32.5L0 65L-56.3 32.5L-56.3 -32.5Z" fill="#6287F7"></path></g><g transform="translate(862 123)"><path d="M0 -48L41.6 -24L41.6 24L0 48L-41.6 24L-41.6 -24Z" fill="#6287F7"></path></g><g transform="translate(350 318)"><path d="M0 -64L55.4 -32L55.4 32L0 64L-55.4 32L-55.4 -32Z" fill="#6287F7"></path></g><g transform="translate(141 66)"><path d="M0 -48L41.6 -24L41.6 24L0 48L-41.6 24L-41.6 -24Z" fill="#6287F7"></path></g><g transform="translate(764 632)"><path d="M0 -42L36.4 -21L36.4 21L0 42L-36.4 21L-36.4 -21Z" fill="#6287F7"></path></g><g transform="translate(665 333)"><path d="M0 -74L64.1 -37L64.1 37L0 74L-64.1 37L-64.1 -37Z" fill="#6287F7"></path></g><g transform="translate(40 351)"><path d="M0 -103L89.2 -51.5L89.2 51.5L0 103L-89.2 51.5L-89.2 -51.5Z" fill="#6287F7"></path></g><g transform="translate(861 855)"><path d="M0 -94L81.4 -47L81.4 47L0 94L-81.4 47L-81.4 -47Z" fill="#6287F7"></path></g><g transform="translate(640 29)"><path d="M0 -39L33.8 -19.5L33.8 19.5L0 39L-33.8 19.5L-33.8 -19.5Z" fill="#6287F7"></path></g><g transform="translate(323 539)"><path d="M0 -44L38.1 -22L38.1 22L0 44L-38.1 22L-38.1 -22Z" fill="#6287F7"></path></g><g transform="translate(117 592)"><path d="M0 -66L57.2 -33L57.2 33L0 66L-57.2 33L-57.2 -33Z" fill="#6287F7"></path></g><g transform="translate(406 24)"><path d="M0 -102L88.3 -51L88.3 51L0 102L-88.3 51L-88.3 -51Z" fill="#6287F7"></path></g><g transform="translate(883 350)"><path d="M0 -54L46.8 -27L46.8 27L0 54L-46.8 27L-46.8 -27Z" fill="#6287F7"></path></g><g transform="translate(3 874)"><path d="M0 -42L36.4 -21L36.4 21L0 42L-36.4 21L-36.4 -21Z" fill="#6287F7"></path></g></g></svg>