<svg id="visual" viewBox="0 0 900 900" width="900" height="900" xmlns="http://www.w3.org/2000/svg" xmlns:xlink="http://www.w3.org/1999/xlink" version="1.1"><rect width="900" height="900" fill="#CFDDF9"></rect><g><g transform="translate(650 403)"><path d="M93.6 -28.2C105.5 6 88.3 51.9 55.6 75.4C22.9 99 -25.3 100.1 -58.9 76.7C-92.5 53.4 -111.4 5.5 -99.1 -29.3C-86.9 -64 -43.4 -85.7 -1.3 -85.3C40.9 -84.9 81.8 -62.4 93.6 -28.2Z" stroke="#6287F7" fill="none" stroke-width="20"></path></g><g transform="translate(342 696)"><path d="M80.1 -24.6C91.2 8.3 79 50.1 50.5 71.3C22 92.4 -22.9 92.9 -52.5 71.6C-82.2 50.2 -96.5 7.1 -85.2 -26C-73.9 -59.1 -36.9 -82.2 -1.2 -81.8C34.5 -81.4 69 -57.5 80.1 -24.6Z" stroke="#6287F7" fill="none" stroke-width="20"></path></g><g transform="translate(95 263)"><path d="M87.6 -29.3C99.9 9.3 86.8 55.4 55.2 79.1C23.6 102.8 -26.4 104 -58.4 80.7C-90.4 57.4 -104.3 9.5 -91.5 -29.8C-78.8 -69.1 -39.4 -99.8 -0.9 -99.5C37.7 -99.3 75.4 -68 87.6 -29.3Z" stroke="#6287F7" fill="none" stroke-width="20"></path></g><g transform="translate(447 207)"><path d="M50.5 -17.8C57.3 4.4 48.9 30.1 31.1 43.1C13.4 56 -13.8 56.2 -32.3 43.1C-50.8 30 -60.6 3.5 -53.8 -18.7C-46.9 -41 -23.5 -59.2 -0.8 -58.9C21.9 -58.7 43.7 -40 50.5 -17.8Z" stroke="#6287F7" fill="none" stroke-width="20"></path></g><g transform="translate(53 884)"><path d="M67.6 -21.3C77.9 9.6 69.7 47.1 47.3 62.8C24.9 78.5 -11.6 72.4 -35.7 53.8C-59.9 35.2 -71.5 4.1 -63.5 -23.7C-55.5 -51.5 -27.7 -75.9 0.5 -76.1C28.7 -76.2 57.4 -52.1 67.6 -21.3Z" stroke="#6287F7" fill="none" stroke-width="20"></path></g><g transform="translate(849 789)"><path d="M58 -18.1C66.2 6.5 57.8 37.3 36.8 53.1C15.8 69 -17.9 69.9 -38.9 54.5C-59.9 39 -68.2 7 -59.7 -18.1C-51.1 -43.2 -25.5 -61.4 -0.3 -61.3C24.9 -61.2 49.8 -42.7 58 -18.1Z" stroke="#6287F7" fill="none" stroke-width="20"></path></g><g transform="translate(754 48)"><path d="M66.5 -19.5C76.6 9.4 68.6 46.4 44.9 64.1C21.3 81.8 -18 80.3 -43.6 61.3C-69.2 42.4 -81.2 6.1 -71.7 -22.1C-62.1 -50.2 -31.1 -70.2 -1.4 -69.7C28.2 -69.2 56.4 -48.4 66.5 -19.5Z" stroke="#6287F7" fill="none" stroke-width="20"></path></g><g transform="translate(34 601)"><path d="M70.6 -22C79.4 4.3 66.2 38.6 42.8 54.6C19.4 70.5 -14.1 68.1 -37.6 51.2C-61.1 34.3 -74.5 2.8 -66.5 -22.2C-58.6 -47.2 -29.3 -65.9 0.8 -66.2C30.9 -66.4 61.7 -48.3 70.6 -22Z" stroke="#6287F7" fill="none" stroke-width="20"></path></g><g transform="translate(574 868)"><path d="M36.3 -12.4C41.3 3.9 36 23 22.3 33.5C8.7 44.1 -13.1 46.1 -25.8 36.6C-38.6 27.1 -42.2 6.1 -36.3 -11.1C-30.5 -28.4 -15.2 -41.9 0.2 -42C15.6 -42 31.2 -28.6 36.3 -12.4Z" stroke="#6287F7" fill="none" stroke-width="20"></path></g><g transform="translate(247 10)"><path d="M65.1 -21.5C72.4 1.3 58.1 30.8 35 47.4C12 64 -19.9 67.6 -42.7 52.5C-65.6 37.4 -79.4 3.6 -70.7 -21.1C-62.1 -45.7 -31.1 -61.1 -1.1 -60.8C28.9 -60.4 57.8 -44.3 65.1 -21.5Z" stroke="#6287F7" fill="none" stroke-width="20"></path></g></g></svg>