<svg id="visual" viewBox="0 0 900 900" width="900" height="900" xmlns="http://www.w3.org/2000/svg" xmlns:xlink="http://www.w3.org/1999/xlink" version="1.1"><path d="M0 73L18.8 70C37.7 67 75.3 61 112.8 61C150.3 61 187.7 67 225.2 73C262.7 79 300.3 85 337.8 77.5C375.3 70 412.7 49 450.2 40C487.7 31 525.3 34 562.8 43C600.3 52 637.7 67 675.2 68.5C712.7 70 750.3 58 787.8 53.5C825.3 49 862.7 52 881.3 53.5L900 55L900 0L881.3 0C862.7 0 825.3 0 787.8 0C750.3 0 712.7 0 675.2 0C637.7 0 600.3 0 562.8 0C525.3 0 487.7 0 450.2 0C412.7 0 375.3 0 337.8 0C300.3 0 262.7 0 225.2 0C187.7 0 150.3 0 112.8 0C75.3 0 37.7 0 18.8 0L0 0Z" fill="#92adfc"></path><path d="M0 154L18.8 154C37.7 154 75.3 154 112.8 157C150.3 160 187.7 166 225.2 166C262.7 166 300.3 160 337.8 154C375.3 148 412.7 142 450.2 127C487.7 112 525.3 88 562.8 86.5C600.3 85 637.7 106 675.2 107.5C712.7 109 750.3 91 787.8 89.5C825.3 88 862.7 103 881.3 110.5L900 118L900 53L881.3 51.5C862.7 50 825.3 47 787.8 51.5C750.3 56 712.7 68 675.2 66.5C637.7 65 600.3 50 562.8 41C525.3 32 487.7 29 450.2 38C412.7 47 375.3 68 337.8 75.5C300.3 83 262.7 77 225.2 71C187.7 65 150.3 59 112.8 59C75.3 59 37.7 65 18.8 68L0 71Z" fill="#89a5fb"></path><path d="M0 172L18.8 181C37.7 190 75.3 208 112.8 212.5C150.3 217 187.7 208 225.2 199C262.7 190 300.3 181 337.8 178C375.3 175 412.7 178 450.2 164.5C487.7 151 525.3 121 562.8 119.5C600.3 118 637.7 145 675.2 154C712.7 163 750.3 154 787.8 157C825.3 160 862.7 175 881.3 182.5L900 190L900 116L881.3 108.5C862.7 101 825.3 86 787.8 87.5C750.3 89 712.7 107 675.2 105.5C637.7 104 600.3 83 562.8 84.5C525.3 86 487.7 110 450.2 125C412.7 140 375.3 146 337.8 152C300.3 158 262.7 164 225.2 164C187.7 164 150.3 158 112.8 155C75.3 152 37.7 152 18.8 152L0 152Z" fill="#7f9efa"></path><path d="M0 199L18.8 212.5C37.7 226 75.3 253 112.8 263.5C150.3 274 187.7 268 225.2 257.5C262.7 247 300.3 232 337.8 221.5C375.3 211 412.7 205 450.2 194.5C487.7 184 525.3 169 562.8 175C600.3 181 637.7 208 675.2 217C712.7 226 750.3 217 787.8 220C825.3 223 862.7 238 881.3 245.5L900 253L900 188L881.3 180.5C862.7 173 825.3 158 787.8 155C750.3 152 712.7 161 675.2 152C637.7 143 600.3 116 562.8 117.5C525.3 119 487.7 149 450.2 162.5C412.7 176 375.3 173 337.8 176C300.3 179 262.7 188 225.2 197C187.7 206 150.3 215 112.8 210.5C75.3 206 37.7 188 18.8 179L0 170Z" fill="#7696f9"></path><path d="M0 289L18.8 299.5C37.7 310 75.3 331 112.8 340C150.3 349 187.7 346 225.2 340C262.7 334 300.3 325 337.8 319C375.3 313 412.7 310 450.2 287.5C487.7 265 525.3 223 562.8 223C600.3 223 637.7 265 675.2 280C712.7 295 750.3 283 787.8 283C825.3 283 862.7 295 881.3 301L900 307L900 251L881.3 243.5C862.7 236 825.3 221 787.8 218C750.3 215 712.7 224 675.2 215C637.7 206 600.3 179 562.8 173C525.3 167 487.7 182 450.2 192.5C412.7 203 375.3 209 337.8 219.5C300.3 230 262.7 245 225.2 255.5C187.7 266 150.3 272 112.8 261.5C75.3 251 37.7 224 18.8 210.5L0 197Z" fill="#6c8ff8"></path><path d="M0 334L18.8 346C37.7 358 75.3 382 112.8 386.5C150.3 391 187.7 376 225.2 368.5C262.7 361 300.3 361 337.8 356.5C375.3 352 412.7 343 450.2 320.5C487.7 298 525.3 262 562.8 266.5C600.3 271 637.7 316 675.2 329.5C712.7 343 750.3 325 787.8 323.5C825.3 322 862.7 337 881.3 344.5L900 352L900 305L881.3 299C862.7 293 825.3 281 787.8 281C750.3 281 712.7 293 675.2 278C637.7 263 600.3 221 562.8 221C525.3 221 487.7 263 450.2 285.5C412.7 308 375.3 311 337.8 317C300.3 323 262.7 332 225.2 338C187.7 344 150.3 347 112.8 338C75.3 329 37.7 308 18.8 297.5L0 287Z" fill="#6287f7"></path><path d="M0 397L18.8 410.5C37.7 424 75.3 451 112.8 466C150.3 481 187.7 484 225.2 481C262.7 478 300.3 469 337.8 466C375.3 463 412.7 466 450.2 436C487.7 406 525.3 343 562.8 332.5C600.3 322 637.7 364 675.2 388C712.7 412 750.3 418 787.8 424C825.3 430 862.7 436 881.3 439L900 442L900 350L881.3 342.5C862.7 335 825.3 320 787.8 321.5C750.3 323 712.7 341 675.2 327.5C637.7 314 600.3 269 562.8 264.5C525.3 260 487.7 296 450.2 318.5C412.7 341 375.3 350 337.8 354.5C300.3 359 262.7 359 225.2 366.5C187.7 374 150.3 389 112.8 384.5C75.3 380 37.7 356 18.8 344L0 332Z" fill="#5c7feb"></path><path d="M0 541L18.8 541C37.7 541 75.3 541 112.8 550C150.3 559 187.7 577 225.2 590.5C262.7 604 300.3 613 337.8 623.5C375.3 634 412.7 646 450.2 649C487.7 652 525.3 646 562.8 616C600.3 586 637.7 532 675.2 527.5C712.7 523 750.3 568 787.8 601C825.3 634 862.7 655 881.3 665.5L900 676L900 440L881.3 437C862.7 434 825.3 428 787.8 422C750.3 416 712.7 410 675.2 386C637.7 362 600.3 320 562.8 330.5C525.3 341 487.7 404 450.2 434C412.7 464 375.3 461 337.8 464C300.3 467 262.7 476 225.2 479C187.7 482 150.3 479 112.8 464C75.3 449 37.7 422 18.8 408.5L0 395Z" fill="#5777df"></path><path d="M0 685L18.8 698.5C37.7 712 75.3 739 112.8 746.5C150.3 754 187.7 742 225.2 752.5C262.7 763 300.3 796 337.8 809.5C375.3 823 412.7 817 450.2 812.5C487.7 808 525.3 805 562.8 797.5C600.3 790 637.7 778 675.2 764.5C712.7 751 750.3 736 787.8 745C825.3 754 862.7 787 881.3 803.5L900 820L900 674L881.3 663.5C862.7 653 825.3 632 787.8 599C750.3 566 712.7 521 675.2 525.5C637.7 530 600.3 584 562.8 614C525.3 644 487.7 650 450.2 647C412.7 644 375.3 632 337.8 621.5C300.3 611 262.7 602 225.2 588.5C187.7 575 150.3 557 112.8 548C75.3 539 37.7 539 18.8 539L0 539Z" fill="#516fd3"></path><path d="M0 739L18.8 752.5C37.7 766 75.3 793 112.8 796C150.3 799 187.7 778 225.2 784C262.7 790 300.3 823 337.8 835C375.3 847 412.7 838 450.2 835C487.7 832 525.3 835 562.8 827.5C600.3 820 637.7 802 675.2 791.5C712.7 781 750.3 778 787.8 790C825.3 802 862.7 829 881.3 842.5L900 856L900 818L881.3 801.5C862.7 785 825.3 752 787.8 743C750.3 734 712.7 749 675.2 762.5C637.7 776 600.3 788 562.8 795.5C525.3 803 487.7 806 450.2 810.5C412.7 815 375.3 821 337.8 807.5C300.3 794 262.7 761 225.2 750.5C187.7 740 150.3 752 112.8 744.5C75.3 737 37.7 710 18.8 696.5L0 683Z" fill="#4b67c8"></path><path d="M0 901L18.8 901C37.7 901 75.3 901 112.8 901C150.3 901 187.7 901 225.2 901C262.7 901 300.3 901 337.8 901C375.3 901 412.7 901 450.2 901C487.7 901 525.3 901 562.8 901C600.3 901 637.7 901 675.2 901C712.7 901 750.3 901 787.8 901C825.3 901 862.7 901 881.3 901L900 901L900 854L881.3 840.5C862.7 827 825.3 800 787.8 788C750.3 776 712.7 779 675.2 789.5C637.7 800 600.3 818 562.8 825.5C525.3 833 487.7 830 450.2 833C412.7 836 375.3 845 337.8 833C300.3 821 262.7 788 225.2 782C187.7 776 150.3 797 112.8 794C75.3 791 37.7 764 18.8 750.5L0 737Z" fill="#455fbc"></path></svg>