<svg id="visual" viewBox="0 0 900 900" width="900" height="900" xmlns="http://www.w3.org/2000/svg" xmlns:xlink="http://www.w3.org/1999/xlink" version="1.1"><g stroke-width="1" stroke-linejoin="bevel"><path d="M474.3 398.7L409.7 400.7L408.7 502.3Z" fill="#b7ccfa" stroke="#b7ccfa"></path><path d="M408.7 502.3L501.3 516.3L474.3 398.7Z" fill="#b7ccfa" stroke="#b7ccfa"></path><path d="M409.7 400.7L259.1 422.7L408.7 502.3Z" fill="#acc4fa" stroke="#acc4fa"></path><path d="M474.3 398.7L411.7 263.1L409.7 400.7Z" fill="#7699f9" stroke="#7699f9"></path><path d="M409.7 400.7L233.1 267.1L259.1 422.7Z" fill="#8baafa" stroke="#8baafa"></path><path d="M640.9 483.3L610.9 357.7L474.3 398.7Z" fill="#cfddf9" stroke="#cfddf9"></path><path d="M474.3 398.7L537.3 264.1L411.7 263.1Z" fill="#7699f9" stroke="#7699f9"></path><path d="M501.3 516.3L640.9 483.3L474.3 398.7Z" fill="#81a2f9" stroke="#81a2f9"></path><path d="M610.9 357.7L537.3 264.1L474.3 398.7Z" fill="#8baafa" stroke="#8baafa"></path><path d="M259.1 422.7L236.1 512.3L408.7 502.3Z" fill="#a1bcfa" stroke="#a1bcfa"></path><path d="M354.7 673.9L552.3 662.9L501.3 516.3Z" fill="#96b3fa" stroke="#96b3fa"></path><path d="M354.7 673.9L501.3 516.3L408.7 502.3Z" fill="#c3d5f9" stroke="#c3d5f9"></path><path d="M501.3 516.3L606.9 655.9L640.9 483.3Z" fill="#8baafa" stroke="#8baafa"></path><path d="M236.1 512.3L354.7 673.9L408.7 502.3Z" fill="#6c90f8" stroke="#6c90f8"></path><path d="M552.3 662.9L606.9 655.9L501.3 516.3Z" fill="#81a2f9" stroke="#81a2f9"></path><path d="M411.7 263.1L233.1 267.1L409.7 400.7Z" fill="#c3d5f9" stroke="#c3d5f9"></path><path d="M259.1 422.7L160.6 533.3L236.1 512.3Z" fill="#b7ccfa" stroke="#b7ccfa"></path><path d="M652.9 231.1L486.3 167.6L537.3 264.1Z" fill="#b7ccfa" stroke="#b7ccfa"></path><path d="M537.3 264.1L486.3 167.6L411.7 263.1Z" fill="#c3d5f9" stroke="#c3d5f9"></path><path d="M411.7 263.1L231.1 155.6L233.1 267.1Z" fill="#6287f7" stroke="#6287f7"></path><path d="M640.9 483.3L736.4 423.7L610.9 357.7Z" fill="#8baafa" stroke="#8baafa"></path><path d="M610.9 357.7L652.9 231.1L537.3 264.1Z" fill="#96b3fa" stroke="#96b3fa"></path><path d="M749.4 493.3L736.4 423.7L640.9 483.3Z" fill="#81a2f9" stroke="#81a2f9"></path><path d="M154.6 363.7L160.6 533.3L259.1 422.7Z" fill="#acc4fa" stroke="#acc4fa"></path><path d="M236.1 512.3L239.1 666.9L354.7 673.9Z" fill="#7699f9" stroke="#7699f9"></path><path d="M160.6 533.3L239.1 666.9L236.1 512.3Z" fill="#acc4fa" stroke="#acc4fa"></path><path d="M233.1 267.1L154.6 363.7L259.1 422.7Z" fill="#cfddf9" stroke="#cfddf9"></path><path d="M743.4 250.1L652.9 231.1L610.9 357.7Z" fill="#acc4fa" stroke="#acc4fa"></path><path d="M733.4 641.9L749.4 493.3L640.9 483.3Z" fill="#7699f9" stroke="#7699f9"></path><path d="M552.3 662.9L653.9 737.4L606.9 655.9Z" fill="#6c90f8" stroke="#6c90f8"></path><path d="M606.9 655.9L733.4 641.9L640.9 483.3Z" fill="#b7ccfa" stroke="#b7ccfa"></path><path d="M354.7 673.9L500.3 792.4L552.3 662.9Z" fill="#a1bcfa" stroke="#a1bcfa"></path><path d="M385.7 802.4L500.3 792.4L354.7 673.9Z" fill="#7699f9" stroke="#7699f9"></path><path d="M653.9 737.4L733.4 641.9L606.9 655.9Z" fill="#c3d5f9" stroke="#c3d5f9"></path><path d="M500.3 792.4L653.9 737.4L552.3 662.9Z" fill="#96b3fa" stroke="#96b3fa"></path><path d="M232.1 744.4L385.7 802.4L354.7 673.9Z" fill="#96b3fa" stroke="#96b3fa"></path><path d="M395.7 0L367.7 102.6L514.3 0Z" fill="#81a2f9" stroke="#81a2f9"></path><path d="M486.3 167.6L367.7 102.6L411.7 263.1Z" fill="#6287f7" stroke="#6287f7"></path><path d="M103.6 629.9L232.1 744.4L239.1 666.9Z" fill="#8baafa" stroke="#8baafa"></path><path d="M239.1 666.9L232.1 744.4L354.7 673.9Z" fill="#7699f9" stroke="#7699f9"></path><path d="M900 420.7L743.4 250.1L736.4 423.7Z" fill="#a1bcfa" stroke="#a1bcfa"></path><path d="M736.4 423.7L743.4 250.1L610.9 357.7Z" fill="#81a2f9" stroke="#81a2f9"></path><path d="M652.9 231.1L651.9 127.6L486.3 167.6Z" fill="#c3d5f9" stroke="#c3d5f9"></path><path d="M367.7 102.6L231.1 155.6L411.7 263.1Z" fill="#6287f7" stroke="#6287f7"></path><path d="M233.1 267.1L95.6 251.1L154.6 363.7Z" fill="#6287f7" stroke="#6287f7"></path><path d="M0 477.3L103.6 629.9L160.6 533.3Z" fill="#cfddf9" stroke="#cfddf9"></path><path d="M160.6 533.3L103.6 629.9L239.1 666.9Z" fill="#cfddf9" stroke="#cfddf9"></path><path d="M768.4 134.6L651.9 127.6L652.9 231.1Z" fill="#8baafa" stroke="#8baafa"></path><path d="M143.6 160.6L95.6 251.1L233.1 267.1Z" fill="#acc4fa" stroke="#acc4fa"></path><path d="M154.6 363.7L0 477.3L160.6 533.3Z" fill="#acc4fa" stroke="#acc4fa"></path><path d="M231.1 155.6L143.6 160.6L233.1 267.1Z" fill="#acc4fa" stroke="#acc4fa"></path><path d="M151.6 0L143.6 160.6L231.1 155.6Z" fill="#acc4fa" stroke="#acc4fa"></path><path d="M900 514.3L900 420.7L749.4 493.3Z" fill="#c3d5f9" stroke="#c3d5f9"></path><path d="M653.9 737.4L739.4 747.4L733.4 641.9Z" fill="#8baafa" stroke="#8baafa"></path><path d="M642.9 900L739.4 747.4L653.9 737.4Z" fill="#c3d5f9" stroke="#c3d5f9"></path><path d="M0 418.7L0 477.3L154.6 363.7Z" fill="#c3d5f9" stroke="#c3d5f9"></path><path d="M0 249.1L0 418.7L95.6 251.1Z" fill="#96b3fa" stroke="#96b3fa"></path><path d="M95.6 251.1L0 418.7L154.6 363.7Z" fill="#96b3fa" stroke="#96b3fa"></path><path d="M288.1 900L418.7 900L385.7 802.4Z" fill="#96b3fa" stroke="#96b3fa"></path><path d="M385.7 802.4L418.7 900L500.3 792.4Z" fill="#a1bcfa" stroke="#a1bcfa"></path><path d="M500.3 792.4L642.9 900L653.9 737.4Z" fill="#c3d5f9" stroke="#c3d5f9"></path><path d="M418.7 900L516.3 900L500.3 792.4Z" fill="#acc4fa" stroke="#acc4fa"></path><path d="M900 239.1L768.4 134.6L743.4 250.1Z" fill="#b7ccfa" stroke="#b7ccfa"></path><path d="M743.4 250.1L768.4 134.6L652.9 231.1Z" fill="#96b3fa" stroke="#96b3fa"></path><path d="M514.3 0L367.7 102.6L486.3 167.6Z" fill="#96b3fa" stroke="#96b3fa"></path><path d="M900 420.7L736.4 423.7L749.4 493.3Z" fill="#a1bcfa" stroke="#a1bcfa"></path><path d="M514.3 0L486.3 167.6L651.9 127.6Z" fill="#a1bcfa" stroke="#a1bcfa"></path><path d="M367.7 102.6L285.1 0L231.1 155.6Z" fill="#6287f7" stroke="#6287f7"></path><path d="M632.9 0L514.3 0L651.9 127.6Z" fill="#96b3fa" stroke="#96b3fa"></path><path d="M900 514.3L749.4 493.3L733.4 641.9Z" fill="#6287f7" stroke="#6287f7"></path><path d="M900 653.9L900 514.3L733.4 641.9Z" fill="#b7ccfa" stroke="#b7ccfa"></path><path d="M232.1 744.4L288.1 900L385.7 802.4Z" fill="#b7ccfa" stroke="#b7ccfa"></path><path d="M132.6 900L288.1 900L232.1 744.4Z" fill="#96b3fa" stroke="#96b3fa"></path><path d="M103.6 629.9L119.6 802.4L232.1 744.4Z" fill="#96b3fa" stroke="#96b3fa"></path><path d="M0 791.4L119.6 802.4L103.6 629.9Z" fill="#c3d5f9" stroke="#c3d5f9"></path><path d="M395.7 0L285.1 0L367.7 102.6Z" fill="#81a2f9" stroke="#81a2f9"></path><path d="M0 477.3L0 640.9L103.6 629.9Z" fill="#96b3fa" stroke="#96b3fa"></path><path d="M0 107.6L95.6 251.1L143.6 160.6Z" fill="#a1bcfa" stroke="#a1bcfa"></path><path d="M0 107.6L0 249.1L95.6 251.1Z" fill="#8baafa" stroke="#8baafa"></path><path d="M733.4 0L632.9 0L651.9 127.6Z" fill="#cfddf9" stroke="#cfddf9"></path><path d="M516.3 900L642.9 900L500.3 792.4Z" fill="#c3d5f9" stroke="#c3d5f9"></path><path d="M739.4 747.4L900 653.9L733.4 641.9Z" fill="#b7ccfa" stroke="#b7ccfa"></path><path d="M900 755.4L900 653.9L739.4 747.4Z" fill="#6287f7" stroke="#6287f7"></path><path d="M900 420.7L900 239.1L743.4 250.1Z" fill="#a1bcfa" stroke="#a1bcfa"></path><path d="M768.4 134.6L733.4 0L651.9 127.6Z" fill="#6287f7" stroke="#6287f7"></path><path d="M900 0L733.4 0L768.4 134.6Z" fill="#81a2f9" stroke="#81a2f9"></path><path d="M642.9 900L740.4 900L739.4 747.4Z" fill="#a1bcfa" stroke="#a1bcfa"></path><path d="M285.1 0L151.6 0L231.1 155.6Z" fill="#6c90f8" stroke="#6c90f8"></path><path d="M0 900L132.6 900L119.6 802.4Z" fill="#acc4fa" stroke="#acc4fa"></path><path d="M119.6 802.4L132.6 900L232.1 744.4Z" fill="#c3d5f9" stroke="#c3d5f9"></path><path d="M900 239.1L900 152.6L768.4 134.6Z" fill="#8baafa" stroke="#8baafa"></path><path d="M740.4 900L900 755.4L739.4 747.4Z" fill="#6287f7" stroke="#6287f7"></path><path d="M0 640.9L0 791.4L103.6 629.9Z" fill="#a1bcfa" stroke="#a1bcfa"></path><path d="M151.6 0L0 107.6L143.6 160.6Z" fill="#7699f9" stroke="#7699f9"></path><path d="M0 791.4L0 900L119.6 802.4Z" fill="#6287f7" stroke="#6287f7"></path><path d="M151.6 0L0 0L0 107.6Z" fill="#81a2f9" stroke="#81a2f9"></path><path d="M740.4 900L900 900L900 755.4Z" fill="#6c90f8" stroke="#6c90f8"></path><path d="M900 152.6L900 0L768.4 134.6Z" fill="#6c90f8" stroke="#6c90f8"></path></g></svg>