<svg id="visual" viewBox="0 0 900 900" width="900" height="900" xmlns="http://www.w3.org/2000/svg" xmlns:xlink="http://www.w3.org/1999/xlink" version="1.1"><path d="M0 100L60 100L60 127L120 127L120 262L180 262L180 181L240 181L240 127L300 127L300 316L360 316L360 181L420 181L420 280L480 280L480 181L540 181L540 172L600 172L600 226L660 226L660 307L720 307L720 289L780 289L780 109L840 109L840 253L900 253L900 280L900 0L900 0L840 0L840 0L780 0L780 0L720 0L720 0L660 0L660 0L600 0L600 0L540 0L540 0L480 0L480 0L420 0L420 0L360 0L360 0L300 0L300 0L240 0L240 0L180 0L180 0L120 0L120 0L60 0L60 0L0 0Z" fill="#cfddf9"></path><path d="M0 127L60 127L60 199L120 199L120 289L180 289L180 226L240 226L240 154L300 154L300 352L360 352L360 235L420 235L420 343L480 343L480 208L540 208L540 208L600 208L600 289L660 289L660 334L720 334L720 316L780 316L780 145L840 145L840 316L900 316L900 325L900 278L900 251L840 251L840 107L780 107L780 287L720 287L720 305L660 305L660 224L600 224L600 170L540 170L540 179L480 179L480 278L420 278L420 179L360 179L360 314L300 314L300 125L240 125L240 179L180 179L180 260L120 260L120 125L60 125L60 98L0 98Z" fill="#bed1fa"></path><path d="M0 226L60 226L60 298L120 298L120 334L180 334L180 307L240 307L240 190L300 190L300 388L360 388L360 334L420 334L420 442L480 442L480 271L540 271L540 271L600 271L600 397L660 397L660 388L720 388L720 397L780 397L780 226L840 226L840 352L900 352L900 415L900 323L900 314L840 314L840 143L780 143L780 314L720 314L720 332L660 332L660 287L600 287L600 206L540 206L540 206L480 206L480 341L420 341L420 233L360 233L360 350L300 350L300 152L240 152L240 224L180 224L180 287L120 287L120 197L60 197L60 125L0 125Z" fill="#aec5fa"></path><path d="M0 334L60 334L60 433L120 433L120 424L180 424L180 451L240 451L240 289L300 289L300 451L360 451L360 397L420 397L420 505L480 505L480 379L540 379L540 397L600 397L600 496L660 496L660 496L720 496L720 514L780 514L780 352L840 352L840 433L900 433L900 505L900 413L900 350L840 350L840 224L780 224L780 395L720 395L720 386L660 386L660 395L600 395L600 269L540 269L540 269L480 269L480 440L420 440L420 332L360 332L360 386L300 386L300 188L240 188L240 305L180 305L180 332L120 332L120 296L60 296L60 224L0 224Z" fill="#9eb9fa"></path><path d="M0 433L60 433L60 523L120 523L120 577L180 577L180 604L240 604L240 397L300 397L300 568L360 568L360 604L420 604L420 613L480 613L480 541L540 541L540 478L600 478L600 640L660 640L660 568L720 568L720 667L780 667L780 433L840 433L840 568L900 568L900 604L900 503L900 431L840 431L840 350L780 350L780 512L720 512L720 494L660 494L660 494L600 494L600 395L540 395L540 377L480 377L480 503L420 503L420 395L360 395L360 449L300 449L300 287L240 287L240 449L180 449L180 422L120 422L120 431L60 431L60 332L0 332Z" fill="#8eadfa"></path><path d="M0 748L60 748L60 775L120 775L120 757L180 757L180 802L240 802L240 721L300 721L300 793L360 793L360 811L420 811L420 757L480 757L480 721L540 721L540 820L600 820L600 775L660 775L660 757L720 757L720 775L780 775L780 766L840 766L840 721L900 721L900 757L900 602L900 566L840 566L840 431L780 431L780 665L720 665L720 566L660 566L660 638L600 638L600 476L540 476L540 539L480 539L480 611L420 611L420 602L360 602L360 566L300 566L300 395L240 395L240 602L180 602L180 575L120 575L120 521L60 521L60 431L0 431Z" fill="#7fa0f9"></path><path d="M0 865L60 865L60 820L120 820L120 811L180 811L180 838L240 838L240 802L300 802L300 847L360 847L360 856L420 856L420 829L480 829L480 811L540 811L540 865L600 865L600 874L660 874L660 865L720 865L720 865L780 865L780 847L840 847L840 829L900 829L900 820L900 755L900 719L840 719L840 764L780 764L780 773L720 773L720 755L660 755L660 773L600 773L600 818L540 818L540 719L480 719L480 755L420 755L420 809L360 809L360 791L300 791L300 719L240 719L240 800L180 800L180 755L120 755L120 773L60 773L60 746L0 746Z" fill="#7094f8"></path><path d="M0 901L60 901L60 901L120 901L120 901L180 901L180 901L240 901L240 901L300 901L300 901L360 901L360 901L420 901L420 901L480 901L480 901L540 901L540 901L600 901L600 901L660 901L660 901L720 901L720 901L780 901L780 901L840 901L840 901L900 901L900 901L900 818L900 827L840 827L840 845L780 845L780 863L720 863L720 863L660 863L660 872L600 872L600 863L540 863L540 809L480 809L480 827L420 827L420 854L360 854L360 845L300 845L300 800L240 800L240 836L180 836L180 809L120 809L120 818L60 818L60 863L0 863Z" fill="#6287f7"></path></svg>