<svg id="visual" viewBox="0 0 900 900" width="900" height="900" xmlns="http://www.w3.org/2000/svg" xmlns:xlink="http://www.w3.org/1999/xlink" version="1.1"><rect x="0" y="0" width="900" height="900" fill="#CFDDF9"></rect><defs><linearGradient id="grad1_0" x1="0%" y1="0%" x2="100%" y2="100%"><stop offset="30%" stop-color="#cfddf9" stop-opacity="1"></stop><stop offset="70%" stop-color="#cfddf9" stop-opacity="1"></stop></linearGradient></defs><defs><linearGradient id="grad2_0" x1="0%" y1="0%" x2="100%" y2="100%"><stop offset="30%" stop-color="#cfddf9" stop-opacity="1"></stop><stop offset="70%" stop-color="#cfddf9" stop-opacity="1"></stop></linearGradient></defs><g transform="translate(900, 0)"><path d="M0 572.8C-57 523.1 -114 473.5 -187.9 453.6C-261.8 433.7 -352.7 443.5 -405 405C-457.3 366.5 -470.9 279.5 -492.4 204C-513.9 128.4 -543.4 64.2 -572.8 0L0 0Z" fill="#6287F7"></path></g><g transform="translate(0, 900)"><path d="M0 -572.8C80.4 -570 160.8 -567.2 219.2 -529.2C277.6 -491.2 313.9 -417.9 362 -362C410.2 -306.1 470.1 -267.5 507.2 -210.1C544.3 -152.6 558.5 -76.3 572.8 0L0 0Z" fill="#6287F7"></path></g></svg>