<svg id="visual" viewBox="0 0 900 600" width="900" height="600" xmlns="http://www.w3.org/2000/svg" xmlns:xlink="http://www.w3.org/1999/xlink" version="1.1"><path d="M707 0L682 0L682 55L733 55L733 109L632 109L632 164L666 164L666 218L765 218L765 273L627 273L627 327L760 327L760 382L729 382L729 436L749 436L749 491L769 491L769 545L761 545L761 600L0 600L0 545L0 545L0 491L0 491L0 436L0 436L0 382L0 382L0 327L0 327L0 273L0 273L0 218L0 218L0 164L0 164L0 109L0 109L0 55L0 55L0 0L0 0Z" fill="#ffffff"></path><path d="M518 0L600 0L600 55L628 55L628 109L562 109L562 164L594 164L594 218L513 218L513 273L566 273L566 327L601 327L601 382L518 382L518 436L492 436L492 491L543 491L543 545L572 545L572 600L0 600L0 545L0 545L0 491L0 491L0 436L0 436L0 382L0 382L0 327L0 327L0 273L0 273L0 218L0 218L0 164L0 164L0 109L0 109L0 55L0 55L0 0L0 0Z" fill="#dff2e5"></path><path d="M481 0L485 0L485 55L441 55L441 109L432 109L432 164L488 164L488 218L383 218L383 273L430 273L430 327L372 327L372 382L353 382L353 436L488 436L488 491L366 491L366 545L386 545L386 600L0 600L0 545L0 545L0 491L0 491L0 436L0 436L0 382L0 382L0 327L0 327L0 273L0 273L0 218L0 218L0 164L0 164L0 109L0 109L0 55L0 55L0 0L0 0Z" fill="#bee5cc"></path><path d="M299 0L254 0L254 55L304 55L304 109L289 109L289 164L339 164L339 218L350 218L350 273L318 273L318 327L277 327L277 382L244 382L244 436L298 436L298 491L344 491L344 545L224 545L224 600L0 600L0 545L0 545L0 491L0 491L0 436L0 436L0 382L0 382L0 327L0 327L0 273L0 273L0 218L0 218L0 164L0 164L0 109L0 109L0 55L0 55L0 0L0 0Z" fill="#9cd8b3"></path><path d="M98 0L102 0L102 55L93 55L93 109L208 109L208 164L158 164L158 218L138 218L138 273L193 273L193 327L157 327L157 382L172 382L172 436L181 436L181 491L169 491L169 545L121 545L121 600L0 600L0 545L0 545L0 491L0 491L0 436L0 436L0 382L0 382L0 327L0 327L0 273L0 273L0 218L0 218L0 164L0 164L0 109L0 109L0 55L0 55L0 0L0 0Z" fill="#79ca9a"></path></svg>