<svg id="visual" viewBox="0 0 900 450" width="900" height="450" xmlns="http://www.w3.org/2000/svg" xmlns:xlink="http://www.w3.org/1999/xlink" version="1.1"><rect x="0" y="0" width="900" height="450" fill="#76A2F8"></rect><defs><linearGradient id="grad1_0" x1="50%" y1="0%" x2="100%" y2="100%"><stop offset="10%" stop-color="#d8dcfc" stop-opacity="1"></stop><stop offset="90%" stop-color="#d8dcfc" stop-opacity="1"></stop></linearGradient></defs><defs><linearGradient id="grad1_1" x1="50%" y1="0%" x2="100%" y2="100%"><stop offset="10%" stop-color="#d8dcfc" stop-opacity="1"></stop><stop offset="90%" stop-color="#adbefa" stop-opacity="1"></stop></linearGradient></defs><defs><linearGradient id="grad1_2" x1="50%" y1="0%" x2="100%" y2="100%"><stop offset="10%" stop-color="#76a2f8" stop-opacity="1"></stop><stop offset="90%" stop-color="#adbefa" stop-opacity="1"></stop></linearGradient></defs><defs><linearGradient id="grad2_0" x1="0%" y1="0%" x2="50%" y2="100%"><stop offset="10%" stop-color="#d8dcfc" stop-opacity="1"></stop><stop offset="90%" stop-color="#d8dcfc" stop-opacity="1"></stop></linearGradient></defs><defs><linearGradient id="grad2_1" x1="0%" y1="0%" x2="50%" y2="100%"><stop offset="10%" stop-color="#adbefa" stop-opacity="1"></stop><stop offset="90%" stop-color="#d8dcfc" stop-opacity="1"></stop></linearGradient></defs><defs><linearGradient id="grad2_2" x1="0%" y1="0%" x2="50%" y2="100%"><stop offset="10%" stop-color="#adbefa" stop-opacity="1"></stop><stop offset="90%" stop-color="#76a2f8" stop-opacity="1"></stop></linearGradient></defs><g transform="translate(900, 0)"><path d="M0 315C-23.8 313.7 -47.6 312.4 -70.1 307.1C-92.6 301.8 -113.7 292.4 -136.2 282.9C-158.8 273.4 -182.6 263.9 -195.2 244.7C-207.7 225.5 -208.8 196.7 -222.8 177.7C-236.8 158.7 -263.8 149.4 -273 131.5C-282.2 113.5 -273.8 86.8 -277.9 63.4C-281.9 40.1 -298.5 20 -315 0L0 0Z" fill="#94b0f9"></path><path d="M0 210C-15.9 209.1 -31.7 208.3 -46.7 204.7C-61.7 201.2 -75.8 194.9 -90.8 188.6C-105.8 182.3 -121.8 175.9 -130.1 163.1C-138.4 150.4 -139.2 131.1 -148.5 118.5C-157.9 105.8 -175.8 99.6 -182 87.6C-188.2 75.7 -182.5 57.9 -185.2 42.3C-187.9 26.7 -199 13.4 -210 0L0 0Z" fill="#c4cdfb"></path><path d="M0 105C-7.9 104.6 -15.9 104.1 -23.4 102.4C-30.9 100.6 -37.9 97.5 -45.4 94.3C-52.9 91.1 -60.9 88 -65.1 81.6C-69.2 75.2 -69.6 65.6 -74.3 59.2C-78.9 52.9 -87.9 49.8 -91 43.8C-94.1 37.8 -91.3 28.9 -92.6 21.1C-94 13.4 -99.5 6.7 -105 0L0 0Z" fill="#d8dcfc"></path></g><g transform="translate(0, 450)"><path d="M0 -315C23.4 -312.3 46.8 -309.6 69.4 -304.2C92.1 -298.7 113.9 -290.5 135.4 -281.1C156.8 -271.7 177.9 -261.3 196.4 -246.3C214.9 -231.3 230.7 -211.8 237.7 -189.5C244.6 -167.3 242.7 -142.3 255 -122.8C267.3 -103.3 293.8 -89.4 306.1 -69.9C318.5 -50.3 316.8 -25.2 315 0L0 0Z" fill="#94b0f9"></path><path d="M0 -210C15.6 -208.2 31.2 -206.4 46.3 -202.8C61.4 -199.1 75.9 -193.6 90.2 -187.4C104.6 -181.2 118.6 -174.2 130.9 -164.2C143.2 -154.2 153.8 -141.2 158.5 -126.4C163.1 -111.5 161.8 -94.8 170 -81.9C178.2 -68.9 195.8 -59.6 204.1 -46.6C212.3 -33.6 211.2 -16.8 210 0L0 0Z" fill="#c4cdfb"></path><path d="M0 -105C7.8 -104.1 15.6 -103.2 23.1 -101.4C30.7 -99.6 38 -96.8 45.1 -93.7C52.3 -90.6 59.3 -87.1 65.5 -82.1C71.6 -77.1 76.9 -70.6 79.2 -63.2C81.5 -55.8 80.9 -47.4 85 -40.9C89.1 -34.4 97.9 -29.8 102 -23.3C106.2 -16.8 105.6 -8.4 105 0L0 0Z" fill="#d8dcfc"></path></g></svg>