<svg id="visual" viewBox="0 0 900 200" width="900" height="200" xmlns="http://www.w3.org/2000/svg" xmlns:xlink="http://www.w3.org/1999/xlink" version="1.1"><path d="M0 40L9.3 63.8C18.7 87.7 37.3 135.3 56.2 132.5C75 129.7 94 76.3 112.8 53.8C131.7 31.3 150.3 39.7 169 44.7C187.7 49.7 206.3 51.3 225 63.5C243.7 75.7 262.3 98.3 281.2 106.8C300 115.3 319 109.7 337.8 99.3C356.7 89 375.3 74 394 72.5C412.7 71 431.3 83 450 97.8C468.7 112.7 487.3 130.3 506.2 124.5C525 118.7 544 89.3 562.8 67.5C581.7 45.7 600.3 31.3 619 23.7C637.7 16 656.3 15 675 41.2C693.7 67.3 712.3 120.7 731.2 143.2C750 165.7 769 157.3 787.8 132C806.7 106.7 825.3 64.3 844 70.8C862.7 77.3 881.3 132.7 890.7 160.3L900 188L900 0L890.7 0C881.3 0 862.7 0 844 0C825.3 0 806.7 0 787.8 0C769 0 750 0 731.2 0C712.3 0 693.7 0 675 0C656.3 0 637.7 0 619 0C600.3 0 581.7 0 562.8 0C544 0 525 0 506.2 0C487.3 0 468.7 0 450 0C431.3 0 412.7 0 394 0C375.3 0 356.7 0 337.8 0C319 0 300 0 281.2 0C262.3 0 243.7 0 225 0C206.3 0 187.7 0 169 0C150.3 0 131.7 0 112.8 0C94 0 75 0 56.2 0C37.3 0 18.7 0 9.3 0L0 0Z" fill="#F4F5FC" stroke-linecap="round" stroke-linejoin="miter"></path></svg>